<svg xmlns="http://www.w3.org/2000/svg" viewBox="0 0 64 64" role="img" aria-label="BusOnTime">
  <rect width="64" height="64" rx="14" fill="#0f172a"/>
  <circle cx="48" cy="16" r="7" fill="#22c55e"/>
  <path fill="#f8fafc" d="M17 15h26c5 0 9 4 9 9v17c0 3.3-2.7 6-6 6h-1v3a3 3 0 1 1-6 0v-3H25v3a3 3 0 1 1-6 0v-3h-1c-3.3 0-6-2.7-6-6V20c0-2.8 2.2-5 5-5Zm3 7v13h24V24c0-1.1-.9-2-2-2H20Zm1 20a3 3 0 1 0 0-6 3 3 0 0 0 0 6Zm22 0a3 3 0 1 0 0-6 3 3 0 0 0 0 6Z"/>
  <path fill="#38bdf8" d="M23 25h18v4H23z"/>
</svg>